<?xml version="1.0" encoding="utf-8"?>
<!-- Generator: Adobe Illustrator 23.0.3, SVG Export Plug-In . SVG Version: 6.00 Build 0)  -->
<svg version="1.1" id="Layer_1" xmlns="http://www.w3.org/2000/svg" xmlns:xlink="http://www.w3.org/1999/xlink" x="0px" y="0px"
	 viewBox="0 0 2183.6 335.8" style="enable-background:new 0 0 2183.6 335.8;" xml:space="preserve">
<style type="text/css">
	.st0{fill:#FFFFFF;}
</style>
<g>
	<polygon class="st0" points="288.54,51.53 242.21,51.53 242.21,143.58 201.57,143.58 201.57,51.53 153.48,51.48 155.23,89.59 
		155.23,144.65 149.57,144.65 151.14,179.87 155.23,179.71 155.23,292.46 201.57,292.46 201.57,188.71 193.13,181.05 242.21,181.11 
		242.21,292.46 289.84,292.42 288.54,260.88 	"/>
	<path class="st0" d="M875.94,159.2l8.64,8.69l-0.79,42.87L833.06,51.53l-55.61,0.04l4.12,19.78v151.78
		c2.06,4.25,4.57,10.3,4.57,10.3l-4.57,10.66v48.37h44.73V157.02l46.79,135.44h48.93V51.53h-46.09V159.2z"/>
	<path class="st0" d="M1013.97,48.77c-21.72,0-39.38,6.28-51.06,18.16c-9.62,9.78-14.92,22.92-14.92,36.99v137.06
		c0,27.28,20.4,54.81,65.98,54.81c14.76,0,26.55-3.33,35.77-8.81l27.94,5.34l0.24-134.91h-65.62v37.87h23.69l0.08,67.63l-8.24-9.57
		c-3.27,2.81-7.73,4.59-13.84,4.59c-13.64,0-19.31-11.25-19.31-17.28V176.8c-2.02-4.22-4.37-9.89-4.37-9.89l4.37-10.21v-52.78
		c0-6.02,5.66-17.28,19.31-17.28c11.18,0,17.28,11.41,17.28,17.28v20.72l46.67-2.2v-18.52c0-13.5-5.67-26.98-15.56-36.99
		C1054.18,58.64,1039.14,48.77,1013.97,48.77z"/>
	<path class="st0" d="M552.66,89.63l1.68-38.16h-49.3l1.37,33.44v199.34l-0.34,8.22l59.52-0.26c4.2-2.01,9.78-4.32,9.78-4.32
		l9.89,4.24l22.69-0.1l2.25-37.81h-57.54V89.63z"/>
	<path class="st0" d="M1237.48,51.53l-80.07-0.05l1.57,38.36v162.62c0.97,2.08,1.98,4.52,1.98,4.52l-2.35,5.49l-1.22,29.87
		l80.09,0.12c17.7,0,32.13-7.31,41.76-21.13c8.54-12.26,13.05-29.06,13.05-48.57V121.23c0-9.03-1.12-18.47-3.43-28.87
		C1283.11,68.31,1261.99,51.53,1237.48,51.53z M1205.31,254.59V89.4h23.37c13.35,0,19.31,9.82,19.31,31.83v101.53
		c0,13.01-2.1,21.73-6.56,26.71l11.83,5.71L1205.31,254.59z"/>
	<path class="st0" d="M356.86,258.25l6.56-8.69v-68.1h45.14l2.25-37.87h-47.39V89.4h62.06l2.25-37.87h-57.14
		c-2.36,1.05-4.53,1.95-4.53,1.95l-4.56-1.95l-47.38-0.23l-0.33,34.24h3.3v168.65l-1.73,38.16l112.58,0.12l2.25-37.87h-62.66
		L356.86,258.25z"/>
	<path class="st0" d="M688.95,48.27c-48.2,0-65.3,29.52-65.3,54.81V239.8c0,14.24,5.22,27.48,14.7,37.27
		c11.52,11.92,29.02,18.21,50.6,18.21c46.42,0,63.27-33.18,63.27-55.49V103.08C752.22,75.84,730.49,48.27,688.95,48.27z
		 M701.89,250.08c-2.86,4.03-7.21,7.34-12.94,7.34c-14.33,0-18.97-12.32-18.97-18.29v-132.1c-0.83-1.9-1.47-3.45-1.47-3.45
		l4.22-9.85l-6.84-7.5c0,0,21.34-0.77,23.06-0.77c10.96,0,16.94,11.86,16.94,17.95l0.1,155.47L701.89,250.08z"/>
	<polygon class="st0" points="90.43,57.57 84.26,51.53 2.36,51.53 4.29,89.06 57.34,89.18 44.43,97.66 44.43,292.46 90.76,292.46 
		90.76,89.06 134.3,89.06 136.55,51.53 99.64,51.53 	"/>
	<path class="st0" d="M1348.68,51.48l2.04,9.8l-30.44,139.18h-5.65l0.89,21.74l-15.37,70.26h46.69l8.64-55.16h40.37l9,55.16h48.94
		l-52.7-240.93L1348.68,51.48z M1383.5,199.08h-21.25l13.56-82.61l16.11,93.07L1383.5,199.08z"/>
	<path class="st0" d="M1602.79,121.27c0-42.98-23.72-69.68-60.06-69.68l-76.02,0.02l1.46,36.08v63.69l4.98,7.82l-4.98,8.68v124.58
		h45.98l0.07-119.65l50.38,119.65H1613l-45.15-102.26C1590.08,178.18,1602.79,153.19,1602.79,121.27z M1526.45,157.91h-3.14
		l-9.46,7.79c0,0,0.09-11.25,0.15-15.91V95.23l-14.35-6.09h14.35v-0.03h25.22c15.26,0,19.3,14.28,19.3,32.45
		C1558.51,154.66,1551.66,157.91,1526.45,157.91z"/>
	<polygon class="st0" points="1754.22,70.5 1746.63,64.9 1756.42,64.92 1761.68,51.58 1714.35,51.58 1682.06,137.86 1686.09,143.94 
		1675.74,154.35 1675.74,88.52 1677.26,51.54 1627.93,51.54 1629.44,88.55 1629.44,255.05 1627.31,292.46 1632.58,292.49 
		1677.22,292.49 1675.74,256.48 1675.74,171.92 1724.1,292.36 1775.3,292.36 1715.57,165.43 	"/>
	<path class="st0" d="M2150.51,116.19c23.94-44.73,13.54-109.29,13.54-109.29l-105.66,5.88l-5.87,2.77l-6.55-2.08l-73.29,3.54
		l-0.83,1.3l2,31.86l0.67,18.53l0.58,13.12c0,0,31.2-0.06,34.55-0.11c-2.81,1.85-15.25,9.15-15.91,9.71
		c1.89,49.21,8.9,104.94,10.63,118.17h-0.16v119.06h4.42c2.97,0.07,6.25,0,6.25,0s10.63-34.84,11.36-37.94
		c0.88-9.28,2.8-44.42,2.8-44.42s5.29,28.31,5.85,31.13c1.04,1.02,17.63,14.31,17.63,14.05c0.4-7.73,0.89-17.78,0.89-17.78
		l0.19-38.62l0.15-15.84l0.3-31.26l-2.44-8.07l2.6-6.6l1.02-34.39c0,0,0.35-53.04,0.26-59.47
		C2055.48,79.44,2089.38,81.18,2150.51,116.19z"/>
	<path class="st0" d="M1837.37,260.68c-20.11,0-35.41,15.3-35.41,35.41c0,20.11,15.3,35.41,35.41,35.41
		c20.11,0,35.41-15.3,35.41-35.41C1872.78,275.98,1857.48,260.68,1837.37,260.68z M1837.37,327.4c-17.77,0-31.31-13.54-31.31-31.31
		c0-17.77,13.54-31.31,31.31-31.31c17.77,0,31.31,13.54,31.31,31.31C1868.68,313.87,1855.14,327.4,1837.37,327.4z"/>
	<polygon class="st0" points="2112,280.18 2122.35,280.18 2122.35,316.8 2127.83,316.8 2127.83,280.18 2138.17,280.18 
		2138.17,275.38 2112,275.38 	"/>
	<polygon class="st0" points="2174.41,275.38 2161.56,301.72 2161.44,301.72 2148.64,275.38 2143.61,275.38 2143.61,316.8 
		2148.59,316.8 2148.59,286.35 2148.7,286.35 2160.3,309.09 2162.75,309.09 2174.3,286.47 2174.41,286.47 2174.41,316.8 
		2179.44,316.8 2179.44,275.38 	"/>
	<path class="st0" d="M1849.88,286.89c0-7.08-3.85-11.33-11.95-11.33h-12.58v41.07h5.44v-17.62h6.06l9.4,17.62h6.12l-10.31-18.52
		C1847.16,296.97,1849.88,293.06,1849.88,286.89z M1830.79,294.76v-14.67h7.02c4.98,0,6.63,2.32,6.63,7.14
		c0,4.7-1.53,7.53-6.74,7.53H1830.79z"/>
</g>
</svg>
